<svg width="27" height="31" viewBox="0 0 27 31" fill="none" xmlns="http://www.w3.org/2000/svg">
<path fill-rule="evenodd" clip-rule="evenodd" d="M0.5 13.5L4.50877 13.9009C4.5176 14.1024 4.53306 14.3022 4.55493 14.5H0V15.5H4.72302C4.76249 15.674 4.807 15.846 4.85639 16.016L0.5 16.5V17.5L5.21789 17.0282C5.71164 18.1858 6.44099 19.2188 7.34568 20.067C7.59824 20.5777 7.77559 21.2265 7.57757 21.7846C5.26951 22.5639 2.17664 24.8128 2.49998 29.5C9.5 31 16.8442 31.3854 24.4819 29.4083C24.641 27.2665 23.8136 22.6863 19.231 21.5H19.0852C19.0176 21.0905 19.0854 20.7373 19.1995 20.4657C20.3149 19.5519 21.2069 18.3755 21.781 17.0309L26.0455 17.5V16.5L22.1416 16.0229C22.1918 15.8507 22.237 15.6763 22.277 15.5H26.5V14.5H22.4451C22.4673 14.2989 22.4829 14.0958 22.4917 13.8909L26.0455 13.5V12.5L22.4798 12.8922L22.4749 12.8232L22 0L19 3.5L18.4847 4.2729C17.4077 3.20365 15.5771 2.5 13.5 2.5C11.3527 2.5 9.46881 3.25202 8.40866 4.38257L5 0L4.50383 12.9004L0.5 12.5V13.5Z" fill="black"/>
</svg>
