<svg width="26" height="26" viewBox="0 0 26 26" fill="none" xmlns="http://www.w3.org/2000/svg">
<path d="M18.2812 12.5938L16.8642 11.4911L16.3881 7.85835H8.19402C7.99952 7.85835 7.82698 7.99638 7.7862 8.1846L7.04899 11.5319C7.06467 12.2251 7.83168 13.0408 8.53125 13.0408C9.23709 13.0408 18.2812 13.3027 18.2812 12.5938Z" fill="#4296B5"/>
<path d="M16.3881 11.5068C16.3881 12.2126 16.9621 12.7898 17.6711 12.7898C18.3707 12.7898 18.9385 12.2283 18.9542 11.5319L18.217 8.1846C18.1762 7.99638 18.0036 7.85835 17.8091 7.85835H15.9394L16.3881 11.4911V11.5068Z" fill="#4296B5"/>
<path fill-rule="evenodd" clip-rule="evenodd" d="M0 4.0625C0 1.81884 1.81884 0 4.0625 0H21.9375C24.1812 0 26 1.81884 26 4.0625V21.9375C26 24.1812 24.1812 26 21.9375 26H4.0625C1.81884 26 0 24.1812 0 21.9375V4.0625ZM17.8091 7.3125C18.2577 7.3125 18.653 7.62934 18.7503 8.06853L19.5032 11.4754V11.5036C19.5032 12.1467 19.1675 12.7145 18.6656 13.0408V17.6962C18.6656 18.2264 18.2358 18.6561 17.7056 18.6561H8.32891C7.79875 18.6561 7.36897 18.2264 7.36897 17.6962V13.0596C6.84822 12.7365 6.5 12.1593 6.5 11.5036V11.4754L7.2529 8.06853C7.35015 7.62934 7.74542 7.3125 8.19402 7.3125H17.8091Z" fill="#4296B5"/>
<rect x="11.375" y="14.625" width="3.25" height="3.25" rx="0.75" fill="#4296B5"/>
</svg>
