<svg width="26" height="26" viewBox="0 0 26 26" fill="none" xmlns="http://www.w3.org/2000/svg">
<path fill-rule="evenodd" clip-rule="evenodd" d="M0 4.0625C0 1.81884 1.81884 0 4.0625 0H21.9375C24.1812 0 26 1.81884 26 4.0625V21.9375C26 24.1812 24.1812 26 21.9375 26H4.0625C1.81884 26 0 24.1812 0 21.9375V4.0625ZM13 6.5C16.575 6.5 19.5 9.425 19.5 13C19.5 16.25 17.1438 19.0125 13.8938 19.5V14.8687H15.4375L15.7625 13H13.975V11.7812C13.975 11.2937 14.2188 10.8063 15.0312 10.8063H15.8438V9.18125C15.8438 9.18125 15.1125 9.01875 14.3813 9.01875C12.9188 9.01875 11.9437 9.9125 11.9437 11.5375V13H10.3187V14.8687H11.9437V19.4187C8.85625 18.9312 6.5 16.25 6.5 13C6.5 9.425 9.425 6.5 13 6.5Z" fill="#4296B5"/>
</svg>
