<svg width="26" height="26" viewBox="0 0 26 26" fill="none" xmlns="http://www.w3.org/2000/svg">
<path d="M13 15.275C11.7812 15.275 10.725 14.3 10.725 13C10.725 11.7812 11.7 10.725 13 10.725C14.2188 10.725 15.275 11.7 15.275 13C15.275 14.2187 14.2188 15.275 13 15.275Z" fill="#4296B5"/>
<path fill-rule="evenodd" clip-rule="evenodd" d="M15.7625 7.475H10.2375C9.5875 7.55625 9.2625 7.6375 9.01875 7.71875C8.69375 7.8 8.45 7.9625 8.20625 8.20625C8.01337 8.39913 7.92224 8.592 7.8121 8.82513C7.78306 8.88657 7.75263 8.95098 7.71875 9.01875C7.70618 9.05646 7.69167 9.09611 7.67611 9.13861C7.59111 9.37083 7.475 9.68805 7.475 10.2375V15.7625C7.55625 16.4125 7.6375 16.7375 7.71875 16.9812C7.8 17.3062 7.9625 17.55 8.20625 17.7937C8.39913 17.9866 8.592 18.0778 8.82514 18.1879C8.88663 18.217 8.95092 18.2473 9.01875 18.2812C9.05646 18.2938 9.09611 18.3083 9.13861 18.3239C9.37083 18.4089 9.68805 18.525 10.2375 18.525H15.7625C16.4125 18.4437 16.7375 18.3625 16.9812 18.2812C17.3062 18.2 17.55 18.0375 17.7937 17.7937C17.9866 17.6009 18.0778 17.408 18.1879 17.1749C18.217 17.1134 18.2473 17.0491 18.2812 16.9812C18.2938 16.9435 18.3083 16.9039 18.3239 16.8614C18.4089 16.6292 18.525 16.3119 18.525 15.7625V10.2375C18.4437 9.5875 18.3625 9.2625 18.2812 9.01875C18.2 8.69375 18.0375 8.45 17.7937 8.20625C17.6009 8.01337 17.408 7.92224 17.1749 7.81209C17.1135 7.78308 17.049 7.75261 16.9812 7.71875C16.9435 7.70618 16.9039 7.69166 16.8614 7.67611C16.6292 7.59111 16.3119 7.475 15.7625 7.475ZM13 9.50625C11.05 9.50625 9.50625 11.05 9.50625 13C9.50625 14.95 11.05 16.4937 13 16.4937C14.95 16.4937 16.4937 14.95 16.4937 13C16.4937 11.05 14.95 9.50625 13 9.50625ZM17.3875 9.425C17.3875 9.87373 17.0237 10.2375 16.575 10.2375C16.1263 10.2375 15.7625 9.87373 15.7625 9.425C15.7625 8.97627 16.1263 8.6125 16.575 8.6125C17.0237 8.6125 17.3875 8.97627 17.3875 9.425Z" fill="#4296B5"/>
<path fill-rule="evenodd" clip-rule="evenodd" d="M0 4.0625C0 1.81884 1.81884 0 4.0625 0H21.9375C24.1812 0 26 1.81884 26 4.0625V21.9375C26 24.1812 24.1812 26 21.9375 26H4.0625C1.81884 26 0 24.1812 0 21.9375V4.0625ZM10.2375 6.25625H15.7625C16.4937 6.3375 16.9812 6.41875 17.3875 6.58125C17.875 6.825 18.2 6.9875 18.6062 7.39375C19.0125 7.8 19.2563 8.20625 19.4188 8.6125C19.5813 9.01875 19.7437 9.50625 19.7437 10.2375V15.7625C19.6625 16.4937 19.5813 16.9812 19.4188 17.3875C19.175 17.875 19.0125 18.2 18.6062 18.6062C18.2 19.0125 17.7937 19.2562 17.3875 19.4187C16.9812 19.5812 16.4937 19.7437 15.7625 19.7437H10.2375C9.50625 19.6625 9.01875 19.5812 8.6125 19.4187C8.125 19.175 7.8 19.0125 7.39375 18.6062C6.9875 18.2 6.74375 17.7937 6.58125 17.3875C6.41875 16.9812 6.25625 16.4937 6.25625 15.7625V10.2375C6.3375 9.50625 6.41875 9.01875 6.58125 8.6125C6.825 8.125 6.9875 7.8 7.39375 7.39375C7.8 6.9875 8.20625 6.74375 8.6125 6.58125C9.01875 6.41875 9.50625 6.25625 10.2375 6.25625Z" fill="#4296B5"/>
</svg>
