<svg width="26" height="26" viewBox="0 0 26 26" fill="none" xmlns="http://www.w3.org/2000/svg">
<path fill-rule="evenodd" clip-rule="evenodd" d="M0 4.0625C0 1.81884 1.81884 0 4.0625 0H21.9375C24.1812 0 26 1.81884 26 4.0625V21.9375C26 24.1812 24.1812 26 21.9375 26H4.0625C1.81884 26 0 24.1812 0 21.9375V4.0625ZM10.7165 16.0888C10.7165 18.4962 12.1692 19.5 14.1277 19.5H16.2985V16.9457H15.1478C14.3399 16.9457 13.8339 16.5948 13.8339 15.591V12.237H16.2005V9.81324H13.8339V6.5H11.8019C11.7121 7.96077 10.896 9.64187 8.9375 10.1478V12.237H10.7165V16.0888Z" fill="#4296B5"/>
</svg>
